{
  "accessors": [
    {
      "bufferView": 0,
      "byteOffset": 0,
      "count": 506249,
      "componentType": 5126,
      "type": "VEC3",
      "min": [
        -199.99977111816406,
        -199.96873474121094,
        -199.99961853027344
      ],
      "max": [
        199.99990844726562,
        200.0,
        199.9998779296875
      ],
      "name": "positions",
      "normalized": true
    },
    {
      "bufferView": 0,
      "byteOffset": 12,
      "count": 506249,
      "componentType": 5126,
      "type": "VEC3",
      "min": [
        -199.99977111816406,
        -199.96873474121094,
        -199.99961853027344
      ],
      "max": [
        199.99990844726562,
        200.0,
        199.9998779296875
      ],
      "name": "colors",
      "normalized": true
    },
    {
      "bufferView": 1,
      "byteOffset": 0,
      "count": 3035328,
      "componentType": 5125,
      "type": "SCALAR",
      "min": [
        -199.99977111816406,
        -199.96873474121094,
        -199.99961853027344
      ],
      "max": [
        199.99990844726562,
        200.0,
        199.9998779296875
      ],
      "name": "indices"
    }
  ],
  "asset": {
    "version": "2.0"
  },
  "buffers": [
    {
      "byteLength": 24291288,
      "uri": "hello_sphere.bin"
    }
  ],
  "bufferViews": [
    {
      "buffer": 0,
      "byteLength": 12149976,
      "byteOffset": 0,
      "byteStride": 24,
      "name": "vertexBufferView",
      "target": 34962
    },
    {
      "buffer": 0,
      "byteLength": 12141312,
      "byteOffset": 12149976,
      "name": "indexBufferView",
      "target": 34963
    }
  ],
  "scene": 0,
  "meshes": [
    {
      "name": "hello_sphere_mesh",
      "primitives": [
        {
          "attributes": {
            "POSITION": 0,
            "COLOR_0": 1
          },
          "indices": 2
        }
      ]
    }
  ],
  "nodes": [
    {
      "mesh": 0,
      "name": "hello_sphere_node"
    }
  ],
  "scenes": [
    {
      "name": "hello_sphere_scene",
      "nodes": [
        0
      ]
    }
  ]
}